<svg width="25" height="24" viewBox="0 0 25 24" fill="none" xmlns="http://www.w3.org/2000/svg">
<g clip-path="url(#clip0_1308_840)">
<path d="M12.5081 2.03007e-05C10.8924 -0.0035797 9.27797 0.47162 7.82933 1.42634C6.97397 1.9901 5.94461 3.02474 5.36213 3.89762C3.93149 6.0437 3.39965 8.5889 3.83981 11.1651C3.97973 11.9839 4.12973 12.5069 4.48253 13.4105C5.67173 16.4568 7.83892 19.6231 10.9133 22.8605C11.1168 23.0748 11.3189 23.2798 11.486 23.4423C11.5397 23.4943 11.5834 23.5342 11.6295 23.5771V23.6415L11.9182 23.8167C12.0329 23.8863 12.1793 23.9688 12.3874 23.9943C12.5955 24.0199 12.8244 23.9573 12.9874 23.8654C13.3133 23.682 13.5274 23.431 13.9179 23.0081C17.3919 19.2456 19.448 16.2425 20.5863 13.1986C21.1762 11.6203 21.4042 10.1571 21.2751 8.67218C21.1191 6.88226 20.5906 5.34842 19.6236 3.89522C19.0524 3.03722 18.0228 1.99322 17.1948 1.4465C15.7409 0.48626 14.124 0.0036203 12.5081 2.03007e-05ZM12.5062 1.18418C13.8838 1.1873 15.2636 1.60874 16.5344 2.44778C17.1207 2.83514 18.1942 3.91418 18.6245 4.5605C19.4904 5.86202 19.9388 7.15562 20.0799 8.77634C20.1929 10.0755 20.0038 11.3304 19.4626 12.7786C18.3994 15.6207 16.4542 18.492 13.0364 22.1938C12.709 22.5485 12.5528 22.6795 12.4851 22.735C12.4404 22.6942 12.3884 22.6452 12.3231 22.5814C12.1398 22.4024 11.9599 22.22 11.7836 22.0342C8.78453 18.876 6.71165 15.8213 5.59973 12.9737C5.26013 12.1039 5.15333 11.7319 5.02229 10.9632C4.63061 8.67146 5.09477 6.46178 6.36053 4.56338C6.80477 3.8969 7.85813 2.84402 8.48957 2.4281C9.75293 1.59602 11.1286 1.18082 12.5062 1.18418ZM12.7136 4.33586C12.2804 4.32098 11.8419 4.35626 11.4639 4.43714V4.43666C10.6808 4.60442 9.86765 5.02946 9.27989 5.57618C8.26805 6.5177 7.74244 7.71554 7.74244 9.08666C7.74244 9.88226 7.88596 10.4983 8.24021 11.2224C8.48837 11.7298 8.67509 11.9851 9.13301 12.4407C9.53981 12.8451 9.83693 13.0774 10.2113 13.2694C10.7955 13.5694 11.3468 13.7489 11.9249 13.8154L12.5936 13.8922V13.8216C13.7686 13.7983 14.8808 13.381 15.7436 12.57C16.753 11.6211 17.2594 10.4604 17.2594 9.08666C17.2594 7.69826 16.7446 6.53642 15.7097 5.57354C15.2211 5.11898 14.6048 4.76378 13.9318 4.53674C13.5747 4.41602 13.1465 4.35098 12.7136 4.33586ZM12.6848 5.57618C13.0596 5.59178 13.4168 5.62946 13.5478 5.67386C14.0686 5.84954 14.5476 6.1313 14.8923 6.45194C15.7426 7.24322 16.0594 7.96298 16.0594 9.08666C16.0594 10.1947 15.7421 10.9243 14.9213 11.6957C14.1447 12.4258 13.1576 12.7491 12.0624 12.6231H12.062C11.6336 12.5736 11.2488 12.4534 10.7592 12.2021C10.4818 12.0595 10.3517 11.9602 9.97925 11.5899C9.54221 11.1555 9.54917 11.1667 9.31829 10.6951C9.01397 10.0728 8.94245 9.76538 8.94245 9.08666C8.94245 7.99922 9.28853 7.20698 10.0968 6.45482C10.4818 6.0965 11.2059 5.71946 11.7149 5.6105C11.9172 5.5673 12.3101 5.56058 12.6848 5.57618Z" fill="black"/>
</g>
<defs>
<clipPath id="clip0_1308_840">
<rect width="24" height="24" fill="white" transform="translate(0.5)"/>
</clipPath>
</defs>
</svg>
