<svg width="104" height="68" viewBox="0 0 104 68" fill="none" xmlns="http://www.w3.org/2000/svg">
<path fill-rule="evenodd" clip-rule="evenodd" d="M23.248 66.2396C22.1475 67.4118 20.754 67.9993 19.0703 67.9993C17.3865 67.9993 15.9983 67.4174 14.9084 66.2562C13.8184 65.095 13.2721 63.6718 13.2721 61.9893C13.2721 60.3289 13.8237 58.9112 14.9242 57.739C16.0247 56.5668 17.4182 55.9793 19.1019 55.9793C20.7857 55.9793 22.1739 56.5613 23.2638 57.7225C24.3538 58.8837 24.9001 60.3069 24.9001 61.9893C24.9001 63.647 24.3485 65.0647 23.248 66.2396ZM9.87296 60.3703H11.7942C11.6596 59.8683 11.467 59.3856 11.211 58.9388C10.2424 57.2426 8.57979 56.1503 6.69283 55.9931C6.54768 55.9821 6.39989 55.9766 6.25209 55.9766C4.28068 55.9766 2.45441 57.0247 1.39876 58.7595C0.749543 59.8242 0.440768 61.0819 0.509385 62.3424C0.572724 63.5091 0.960672 64.6206 1.62573 65.5611C1.79463 65.8011 1.98465 66.0272 2.18522 66.2396C4.43111 68.5868 8.07308 68.5868 10.3216 66.2396C10.604 65.9445 10.8574 65.619 11.0764 65.2715C11.5778 64.4689 11.8866 63.5532 11.979 62.6016C11.9842 62.5575 11.9869 62.5106 11.9895 62.4665C12.0001 62.3313 12.0054 62.1962 12.008 62.0638H6.94882L5.84831 63.9642H9.71197L9.65391 64.069C8.35283 66.3913 5.2941 66.8078 3.47311 64.9019C1.93714 63.2967 1.93714 60.6902 3.47311 59.085C5.44189 57.0191 8.78301 57.7032 9.87296 60.3703ZM16.3916 64.9185C17.1041 65.7183 18.0094 66.1238 19.1019 66.1238C20.1919 66.1238 21.0918 65.7239 21.7938 64.9295C22.4958 64.1352 22.8495 63.1533 22.8495 61.9893C22.8495 60.8392 22.4906 59.86 21.778 59.0574C21.0628 58.2548 20.1602 57.8521 19.0676 57.8521C17.9777 57.8521 17.0777 58.252 16.3757 59.0464C15.6737 59.8435 15.3201 60.8226 15.3201 61.9866C15.3175 63.1395 15.679 64.1186 16.3916 64.9185ZM30.466 67.8007V56.1779H34.8522C36.1453 56.1779 37.1719 56.5337 37.9347 57.2398C38.6974 57.9486 39.0774 58.9002 39.0774 60.0972C39.0774 61.3467 38.6551 62.3231 37.8133 63.0209C36.9714 63.7187 35.9078 64.0662 34.6278 64.0662H32.4189V67.8035H30.466V67.8007ZM32.4215 62.221H34.6938C35.4249 62.221 36.0081 62.0279 36.4409 61.639C36.8737 61.2529 37.0928 60.7426 37.0928 60.111C37.0928 59.4463 36.879 58.9333 36.4488 58.5747C36.0213 58.2162 35.4328 58.0341 34.6938 58.0341H32.4215V62.221ZM41.5766 67.798V56.1751H46.5329C47.826 56.1751 48.8368 56.5116 49.5679 57.1791C50.2989 57.8493 50.6631 58.7485 50.6631 59.8766C50.6631 60.795 50.4229 61.5508 49.9479 62.1438C49.4729 62.7368 48.8236 63.1533 48.0108 63.396L51.0141 67.7952H48.7102L45.9444 63.7435H43.5296V67.7952H41.5766V67.798ZM43.5322 61.9342H46.393C47.0924 61.9342 47.6492 61.7576 48.0609 61.4018C48.4753 61.0488 48.6811 60.5661 48.6811 59.9566C48.6811 59.336 48.4779 58.8588 48.0768 58.5278C47.6756 58.1969 47.1056 58.0286 46.3772 58.0286H43.5322V61.9342ZM62.5497 66.2369C61.4492 67.4091 60.0557 67.9966 58.3719 67.9966C56.6882 67.9966 55.3 67.4146 54.2101 66.2534C53.1201 65.0922 52.5738 63.669 52.5738 61.9866C52.5738 60.3262 53.1254 58.9085 54.2259 57.7363C55.3264 56.564 56.7199 55.9766 58.4036 55.9766C60.0874 55.9766 61.4755 56.5585 62.5655 57.7197C63.6555 58.8809 64.2018 60.3041 64.2018 61.9866C64.2018 63.6442 63.6502 65.0647 62.5497 66.2369ZM55.6933 64.9157C56.4085 65.7183 57.311 66.121 58.401 66.121C59.4909 66.121 60.3909 65.7238 61.0955 64.9267C61.8002 64.1296 62.1512 63.1505 62.1512 61.9866C62.1512 60.8364 61.7922 59.8573 61.0797 59.0547C60.3645 58.252 59.4619 57.8493 58.3693 57.8493C57.2794 57.8493 56.3794 58.2493 55.6774 59.0436C54.9728 59.8407 54.6218 60.8199 54.6218 61.9838C54.6218 63.1367 54.9807 64.1131 55.6933 64.9157ZM67.8094 67.9662C66.3157 67.9662 65.1307 67.3401 64.2493 66.0907L65.5371 64.7116C66.226 65.619 66.9728 66.0741 67.7777 66.0741C68.3188 66.0741 68.7489 65.8811 69.0656 65.5004C69.3823 65.1198 69.5433 64.5516 69.5433 63.7987V56.1779H71.5464V63.8483C71.5464 65.186 71.2033 66.2176 70.5145 66.9374C69.8547 67.6215 68.9522 67.9662 67.8094 67.9662ZM74.4785 67.8007V56.1779H82.7257V58.0038H76.434V61.0267H82.0105V62.8526H76.434V65.9748H82.8049V67.8007H74.4785ZM89.9595 67.9993C88.3496 67.9993 87.0037 67.4201 85.9243 66.2644C84.8449 65.1088 84.3039 63.6828 84.3039 61.9893C84.3039 60.3069 84.8449 58.8837 85.9243 57.7225C87.0037 56.5613 88.376 55.9793 90.0387 55.9793C91.0019 55.9793 91.8227 56.1365 92.493 56.4455C93.1634 56.7544 93.7994 57.2039 94.3906 57.7914L93.1343 59.3029C92.1394 58.3403 91.0996 57.8576 90.0202 57.8576C88.9619 57.8576 88.0831 58.2576 87.3916 59.0519C86.7002 59.849 86.3518 60.8281 86.3518 61.9921C86.3518 63.1422 86.7028 64.1214 87.3996 64.924C88.0963 65.7266 88.9725 66.1293 90.0202 66.1293C90.6562 66.1293 91.2184 66.0024 91.7039 65.7569C92.1896 65.5087 92.6936 65.1281 93.2135 64.6206L94.4697 65.95C93.8443 66.6368 93.1819 67.1526 92.4825 67.4946C91.7884 67.8256 90.9439 67.9993 89.9595 67.9993ZM98.8348 67.8007V58.07H95.8051V56.1779H103.833V58.07H100.806V67.8007H98.8348Z" fill="black"/>
<path fill-rule="evenodd" clip-rule="evenodd" d="M32.5751 38.6554C28.9595 38.7933 25.2436 37.337 22.1875 34.1431C16.4184 28.1138 16.4184 18.3334 22.1875 12.3041C28.9067 5.28184 39.7983 6.76573 44.8364 14.494C46.0213 16.3117 47.8318 17.3129 49.9378 17.3129H54.4058C56.5065 17.3129 58.3117 16.3172 59.4993 14.5051C62.207 10.3706 66.7358 7.78073 71.6999 7.78073C79.8627 7.78073 86.4763 14.6926 86.4763 23.2236C86.4763 31.589 80.4908 38.6775 73.1963 38.6775C66.5457 38.6775 62.6214 34.6202 61.7663 29.3136C60.8294 23.4828 63.7931 19.8862 67.7888 18.1624C68.1925 18.2065 68.6095 18.2093 69.0291 18.19C69.3749 18.1734 69.7707 18.1458 70.2062 18.1045L70.2247 18.2644C70.3566 18.6754 71.6762 18.7802 72.2937 18.6892L73.5737 18.5044C74.0619 18.4327 74.0461 18.0079 73.9775 17.6273V17.6245C74.8933 17.4784 75.7958 17.3129 76.5981 17.1364C77.3397 16.9736 79.4167 16.5599 79.48 15.6718C79.5196 15.1036 78.6065 14.5989 77.1576 14.4141C75.3076 14.1769 69.7285 14.9822 67.4114 15.3932C67.4114 15.3932 65.8517 14.4168 64.7775 13.9424C64.0914 13.639 63.4553 13.6087 62.7322 13.89C62.6847 13.9093 62.6504 13.9479 62.6372 14.0003C62.624 14.0527 62.6372 14.1024 62.6715 14.1438C63.0568 14.6016 64.1494 15.8979 64.9069 16.7475C65.1549 17.0233 65.4162 17.2522 65.6933 17.4398C60.4652 18.5044 55.1025 23.1739 55.1764 30.552C55.2582 38.7768 61.9378 46.4472 72.8216 46.4472C84.8981 46.4472 93.9186 36.049 93.9186 23.2236C93.9186 10.3982 83.9692 0 71.6973 0C63.4078 0 55.9814 4.80193 52.1678 12.1331C47.9321 4.1841 40.276 -0.0165504 32.5381 0.00275663C26.6291 0.0165474 21.0501 2.4906 16.9278 6.80158C8.443 15.669 8.06297 30.3782 16.9278 39.6428C21.2849 44.1965 27.0013 46.4637 32.7123 46.4444C40.0939 46.4196 45.3932 43.427 48.8162 38.7988C52.1256 34.3251 53.9361 27.2312 53.5956 21.5714L41.7935 23.1546C38.1462 23.6345 35.069 24.6247 33.7468 28.4641H44.8522C43.7042 34.634 38.6002 38.4292 32.5751 38.6554Z" fill="#FF6600"/>
</svg>
