<svg width="36" height="36" viewBox="0 0 36 36" fill="none" xmlns="http://www.w3.org/2000/svg">
<path fill-rule="evenodd" clip-rule="evenodd" d="M21 3C21.7957 3 22.5587 3.31607 23.1213 3.87868C23.6839 4.44129 24 5.20435 24 6C24.0008 7.03667 24.359 8.04137 25.0142 8.8447C25.6695 9.64804 26.5816 10.2009 27.597 10.41C28.3767 10.5683 29.0616 11.0299 29.501 11.6932C29.9404 12.3566 30.0983 13.1673 29.94 13.947C29.7817 14.7267 29.3201 15.4116 28.6568 15.851C27.9934 16.2904 27.1827 16.4483 26.403 16.29C25.5724 16.121 24.7655 15.8515 24 15.4875V24C23.9999 25.6834 23.5278 27.3329 22.6371 28.7614C21.7465 30.1898 20.4731 31.3398 18.9616 32.0808C17.4501 32.8218 15.7611 33.124 14.0864 32.9531C12.4117 32.7822 10.8186 32.1451 9.48788 31.1141C8.15718 30.0831 7.1423 28.6996 6.55853 27.1207C5.97475 25.5419 5.84548 23.8309 6.1854 22.1822C6.52533 20.5335 7.32081 19.0133 8.48149 17.794C9.64218 16.5748 11.1215 15.7056 12.7515 15.285C13.5171 15.1004 14.3246 15.2242 14.9998 15.6298C15.6749 16.0353 16.1634 16.6901 16.3599 17.4528C16.5565 18.2155 16.4452 19.0248 16.0502 19.7061C15.6551 20.3875 15.008 20.8861 14.2485 21.0945C13.5453 21.2811 12.9337 21.7167 12.5274 22.3203C12.1212 22.9238 11.9479 23.6544 12.0397 24.3761C12.1315 25.0979 12.4823 25.7618 13.0268 26.2444C13.5713 26.727 14.2724 26.9955 15 27C15.7957 27 16.5587 26.6839 17.1213 26.1213C17.6839 25.5587 18 24.7956 18 24V6C18 5.20435 18.3161 4.44129 18.8787 3.87868C19.4413 3.31607 20.2044 3 21 3Z" fill="#FF6600"/>
</svg>
